<?xml version="1.0" encoding="UTF-8" standalone="no"?>
<!DOCTYPE svg PUBLIC "-//W3C//DTD SVG 1.1//EN"
 "http://www.w3.org/Graphics/SVG/1.1/DTD/svg11.dtd">
<!-- Generated by graphviz version 2.46.1 (20210213.1702)
 -->
<!-- Pages: 1 -->
<svg width="872pt" height="476pt"
 viewBox="0.00 0.00 871.68 476.00" xmlns="http://www.w3.org/2000/svg" xmlns:xlink="http://www.w3.org/1999/xlink">
<g id="graph0" class="graph" transform="scale(1 1) rotate(0) translate(4 472)">
<polygon fill="white" stroke="transparent" points="-4,4 -4,-472 867.68,-472 867.68,4 -4,4"/>
<!-- [root] aws_instance.my&#45;ec2&#45;vm (expand) -->
<g id="node1" class="node">
<title>[root] aws_instance.my&#45;ec2&#45;vm (expand)</title>
<polygon fill="none" stroke="black" points="457,-252 299,-252 299,-216 457,-216 457,-252"/>
<text text-anchor="middle" x="378" y="-230.3" font-family="Times New Roman,serif" font-size="14.00">aws_instance.my&#45;ec2&#45;vm</text>
</g>
<!-- [root] aws_security_group.vpc&#45;ssh (expand) -->
<g id="node2" class="node">
<title>[root] aws_security_group.vpc&#45;ssh (expand)</title>
<polygon fill="none" stroke="black" points="178,-180 0,-180 0,-144 178,-144 178,-180"/>
<text text-anchor="middle" x="89" y="-158.3" font-family="Times New Roman,serif" font-size="14.00">aws_security_group.vpc&#45;ssh</text>
</g>
<!-- [root] aws_instance.my&#45;ec2&#45;vm (expand)&#45;&gt;[root] aws_security_group.vpc&#45;ssh (expand) -->
<g id="edge1" class="edge">
<title>[root] aws_instance.my&#45;ec2&#45;vm (expand)&#45;&gt;[root] aws_security_group.vpc&#45;ssh (expand)</title>
<path fill="none" stroke="black" d="M307.67,-215.97C265.9,-205.85 212.78,-192.98 169.35,-182.46"/>
<polygon fill="black" stroke="black" points="169.94,-179 159.39,-180.05 168.29,-185.81 169.94,-179"/>
</g>
<!-- [root] aws_security_group.vpc&#45;web (expand) -->
<g id="node3" class="node">
<title>[root] aws_security_group.vpc&#45;web (expand)</title>
<polygon fill="none" stroke="black" points="378,-180 196,-180 196,-144 378,-144 378,-180"/>
<text text-anchor="middle" x="287" y="-158.3" font-family="Times New Roman,serif" font-size="14.00">aws_security_group.vpc&#45;web</text>
</g>
<!-- [root] aws_instance.my&#45;ec2&#45;vm (expand)&#45;&gt;[root] aws_security_group.vpc&#45;web (expand) -->
<g id="edge2" class="edge">
<title>[root] aws_instance.my&#45;ec2&#45;vm (expand)&#45;&gt;[root] aws_security_group.vpc&#45;web (expand)</title>
<path fill="none" stroke="black" d="M355.51,-215.7C344.04,-206.88 329.94,-196.03 317.52,-186.47"/>
<polygon fill="black" stroke="black" points="319.3,-183.43 309.24,-180.1 315.03,-188.98 319.3,-183.43"/>
</g>
<!-- [root] data.aws_ami.amzlinux (expand) -->
<g id="node4" class="node">
<title>[root] data.aws_ami.amzlinux (expand)</title>
<polygon fill="none" stroke="black" points="541.5,-180 396.5,-180 396.5,-144 541.5,-144 541.5,-180"/>
<text text-anchor="middle" x="469" y="-158.3" font-family="Times New Roman,serif" font-size="14.00">data.aws_ami.amzlinux</text>
</g>
<!-- [root] aws_instance.my&#45;ec2&#45;vm (expand)&#45;&gt;[root] data.aws_ami.amzlinux (expand) -->
<g id="edge3" class="edge">
<title>[root] aws_instance.my&#45;ec2&#45;vm (expand)&#45;&gt;[root] data.aws_ami.amzlinux (expand)</title>
<path fill="none" stroke="black" d="M400.49,-215.7C411.96,-206.88 426.06,-196.03 438.48,-186.47"/>
<polygon fill="black" stroke="black" points="440.97,-188.98 446.76,-180.1 436.7,-183.43 440.97,-188.98"/>
</g>
<!-- [root] var.instance_type -->
<g id="node9" class="node">
<title>[root] var.instance_type</title>
<polygon fill="none" stroke="black" points="668,-180 560,-180 560,-144 674,-144 674,-174 668,-180"/>
<polyline fill="none" stroke="black" points="668,-180 668,-174 "/>
<polyline fill="none" stroke="black" points="674,-174 668,-174 "/>
<text text-anchor="middle" x="617" y="-158.3" font-family="Times New Roman,serif" font-size="14.00">var.instance_type</text>
</g>
<!-- [root] aws_instance.my&#45;ec2&#45;vm (expand)&#45;&gt;[root] var.instance_type -->
<g id="edge4" class="edge">
<title>[root] aws_instance.my&#45;ec2&#45;vm (expand)&#45;&gt;[root] var.instance_type</title>
<path fill="none" stroke="black" d="M436.16,-215.97C470.51,-205.9 514.15,-193.12 549.94,-182.64"/>
<polygon fill="black" stroke="black" points="551.21,-185.92 559.82,-179.75 549.24,-179.2 551.21,-185.92"/>
</g>
<!-- [root] provider[&quot;registry.terraform.io/hashicorp/aws&quot;] -->
<g id="node7" class="node">
<title>[root] provider[&quot;registry.terraform.io/hashicorp/aws&quot;]</title>
<polygon fill="none" stroke="black" points="287,-108 29.77,-90 287,-72 544.23,-90 287,-108"/>
<text text-anchor="middle" x="287" y="-86.3" font-family="Times New Roman,serif" font-size="14.00">provider[&quot;registry.terraform.io/hashicorp/aws&quot;]</text>
</g>
<!-- [root] aws_security_group.vpc&#45;ssh (expand)&#45;&gt;[root] provider[&quot;registry.terraform.io/hashicorp/aws&quot;] -->
<g id="edge5" class="edge">
<title>[root] aws_security_group.vpc&#45;ssh (expand)&#45;&gt;[root] provider[&quot;registry.terraform.io/hashicorp/aws&quot;]</title>
<path fill="none" stroke="black" d="M137.18,-143.97C167.45,-133.27 206.4,-119.49 237.01,-108.67"/>
<polygon fill="black" stroke="black" points="238.37,-111.91 246.63,-105.27 236.03,-105.31 238.37,-111.91"/>
</g>
<!-- [root] aws_security_group.vpc&#45;web (expand)&#45;&gt;[root] provider[&quot;registry.terraform.io/hashicorp/aws&quot;] -->
<g id="edge6" class="edge">
<title>[root] aws_security_group.vpc&#45;web (expand)&#45;&gt;[root] provider[&quot;registry.terraform.io/hashicorp/aws&quot;]</title>
<path fill="none" stroke="black" d="M287,-143.7C287,-135.98 287,-126.71 287,-118.11"/>
<polygon fill="black" stroke="black" points="290.5,-118.1 287,-108.1 283.5,-118.1 290.5,-118.1"/>
</g>
<!-- [root] data.aws_ami.amzlinux (expand)&#45;&gt;[root] provider[&quot;registry.terraform.io/hashicorp/aws&quot;] -->
<g id="edge7" class="edge">
<title>[root] data.aws_ami.amzlinux (expand)&#45;&gt;[root] provider[&quot;registry.terraform.io/hashicorp/aws&quot;]</title>
<path fill="none" stroke="black" d="M424.48,-143.88C397.08,-133.34 362.01,-119.85 334.14,-109.13"/>
<polygon fill="black" stroke="black" points="335.2,-105.79 324.61,-105.47 332.69,-112.32 335.2,-105.79"/>
</g>
<!-- [root] output.ec2_instance_publicip -->
<g id="node5" class="node">
<title>[root] output.ec2_instance_publicip</title>
<polygon fill="none" stroke="black" points="284.5,-324 109.5,-324 109.5,-288 290.5,-288 290.5,-318 284.5,-324"/>
<polyline fill="none" stroke="black" points="284.5,-324 284.5,-318 "/>
<polyline fill="none" stroke="black" points="290.5,-318 284.5,-318 "/>
<text text-anchor="middle" x="200" y="-302.3" font-family="Times New Roman,serif" font-size="14.00">output.ec2_instance_publicip</text>
</g>
<!-- [root] output.ec2_instance_publicip&#45;&gt;[root] aws_instance.my&#45;ec2&#45;vm (expand) -->
<g id="edge10" class="edge">
<title>[root] output.ec2_instance_publicip&#45;&gt;[root] aws_instance.my&#45;ec2&#45;vm (expand)</title>
<path fill="none" stroke="black" d="M243.54,-287.88C268.2,-278.18 299.22,-265.98 325.25,-255.74"/>
<polygon fill="black" stroke="black" points="326.57,-258.99 334.6,-252.07 324.01,-252.47 326.57,-258.99"/>
</g>
<!-- [root] output.ec2_publicdns -->
<g id="node6" class="node">
<title>[root] output.ec2_publicdns</title>
<polygon fill="none" stroke="black" points="441,-324 309,-324 309,-288 447,-288 447,-318 441,-324"/>
<polyline fill="none" stroke="black" points="441,-324 441,-318 "/>
<polyline fill="none" stroke="black" points="447,-318 441,-318 "/>
<text text-anchor="middle" x="378" y="-302.3" font-family="Times New Roman,serif" font-size="14.00">output.ec2_publicdns</text>
</g>
<!-- [root] output.ec2_publicdns&#45;&gt;[root] aws_instance.my&#45;ec2&#45;vm (expand) -->
<g id="edge11" class="edge">
<title>[root] output.ec2_publicdns&#45;&gt;[root] aws_instance.my&#45;ec2&#45;vm (expand)</title>
<path fill="none" stroke="black" d="M378,-287.7C378,-279.98 378,-270.71 378,-262.11"/>
<polygon fill="black" stroke="black" points="381.5,-262.1 378,-252.1 374.5,-262.1 381.5,-262.1"/>
</g>
<!-- [root] var.aws_region -->
<g id="node8" class="node">
<title>[root] var.aws_region</title>
<polygon fill="none" stroke="black" points="331.5,-36 236.5,-36 236.5,0 337.5,0 337.5,-30 331.5,-36"/>
<polyline fill="none" stroke="black" points="331.5,-36 331.5,-30 "/>
<polyline fill="none" stroke="black" points="337.5,-30 331.5,-30 "/>
<text text-anchor="middle" x="287" y="-14.3" font-family="Times New Roman,serif" font-size="14.00">var.aws_region</text>
</g>
<!-- [root] provider[&quot;registry.terraform.io/hashicorp/aws&quot;]&#45;&gt;[root] var.aws_region -->
<g id="edge13" class="edge">
<title>[root] provider[&quot;registry.terraform.io/hashicorp/aws&quot;]&#45;&gt;[root] var.aws_region</title>
<path fill="none" stroke="black" d="M287,-71.7C287,-63.98 287,-54.71 287,-46.11"/>
<polygon fill="black" stroke="black" points="290.5,-46.1 287,-36.1 283.5,-46.1 290.5,-46.1"/>
</g>
<!-- [root] meta.count&#45;boundary (EachMode fixup) -->
<g id="node10" class="node">
<title>[root] meta.count&#45;boundary (EachMode fixup)</title>
<ellipse fill="none" stroke="black" cx="200" cy="-378" rx="180.87" ry="18"/>
<text text-anchor="middle" x="200" y="-374.3" font-family="Times New Roman,serif" font-size="14.00">[root] meta.count&#45;boundary (EachMode fixup)</text>
</g>
<!-- [root] meta.count&#45;boundary (EachMode fixup)&#45;&gt;[root] output.ec2_instance_publicip -->
<g id="edge8" class="edge">
<title>[root] meta.count&#45;boundary (EachMode fixup)&#45;&gt;[root] output.ec2_instance_publicip</title>
<path fill="none" stroke="black" d="M200,-359.7C200,-351.98 200,-342.71 200,-334.11"/>
<polygon fill="black" stroke="black" points="203.5,-334.1 200,-324.1 196.5,-334.1 203.5,-334.1"/>
</g>
<!-- [root] meta.count&#45;boundary (EachMode fixup)&#45;&gt;[root] output.ec2_publicdns -->
<g id="edge9" class="edge">
<title>[root] meta.count&#45;boundary (EachMode fixup)&#45;&gt;[root] output.ec2_publicdns</title>
<path fill="none" stroke="black" d="M242.18,-360.41C267,-350.65 298.6,-338.23 325.07,-327.81"/>
<polygon fill="black" stroke="black" points="326.55,-331 334.57,-324.08 323.98,-324.48 326.55,-331"/>
</g>
<!-- [root] provider[&quot;registry.terraform.io/hashicorp/aws&quot;] (close) -->
<g id="node11" class="node">
<title>[root] provider[&quot;registry.terraform.io/hashicorp/aws&quot;] (close)</title>
<ellipse fill="none" stroke="black" cx="631" cy="-378" rx="232.86" ry="18"/>
<text text-anchor="middle" x="631" y="-374.3" font-family="Times New Roman,serif" font-size="14.00">[root] provider[&quot;registry.terraform.io/hashicorp/aws&quot;] (close)</text>
</g>
<!-- [root] provider[&quot;registry.terraform.io/hashicorp/aws&quot;] (close)&#45;&gt;[root] aws_instance.my&#45;ec2&#45;vm (expand) -->
<g id="edge12" class="edge">
<title>[root] provider[&quot;registry.terraform.io/hashicorp/aws&quot;] (close)&#45;&gt;[root] aws_instance.my&#45;ec2&#45;vm (expand)</title>
<path fill="none" stroke="black" d="M600.73,-360.01C554.92,-334.3 467.97,-285.5 417.32,-257.07"/>
<polygon fill="black" stroke="black" points="418.73,-253.85 408.3,-252.01 415.31,-259.95 418.73,-253.85"/>
</g>
<!-- [root] root -->
<g id="node12" class="node">
<title>[root] root</title>
<ellipse fill="none" stroke="black" cx="415" cy="-450" rx="49.29" ry="18"/>
<text text-anchor="middle" x="415" y="-446.3" font-family="Times New Roman,serif" font-size="14.00">[root] root</text>
</g>
<!-- [root] root&#45;&gt;[root] meta.count&#45;boundary (EachMode fixup) -->
<g id="edge14" class="edge">
<title>[root] root&#45;&gt;[root] meta.count&#45;boundary (EachMode fixup)</title>
<path fill="none" stroke="black" d="M379.5,-437.44C347.06,-426.88 298.44,-411.05 259.98,-398.53"/>
<polygon fill="black" stroke="black" points="261.03,-395.19 250.44,-395.42 258.86,-401.85 261.03,-395.19"/>
</g>
<!-- [root] root&#45;&gt;[root] provider[&quot;registry.terraform.io/hashicorp/aws&quot;] (close) -->
<g id="edge15" class="edge">
<title>[root] root&#45;&gt;[root] provider[&quot;registry.terraform.io/hashicorp/aws&quot;] (close)</title>
<path fill="none" stroke="black" d="M450.67,-437.44C483.03,-426.95 531.44,-411.27 569.95,-398.78"/>
<polygon fill="black" stroke="black" points="571.08,-402.1 579.52,-395.68 568.92,-395.44 571.08,-402.1"/>
</g>
</g>
</svg>
